<svg width="20" height="20" viewBox="0 0 20 20" fill="none" xmlns="http://www.w3.org/2000/svg">
<path d="M10 0.246582C7.6255 0.24668 5.32849 1.0917 3.51999 2.63043C1.71149 4.16916 0.509528 6.3012 0.12916 8.64506C-0.251207 10.9889 0.214845 13.3917 1.44393 15.4233C2.67301 17.455 4.58491 18.9831 6.83755 19.7341C7.33755 19.8216 7.52505 19.5216 7.52505 19.2591C7.52505 19.0216 7.51254 18.2341 7.51254 17.3966C5.00003 17.8591 4.35003 16.7841 4.15003 16.2216C3.9281 15.6745 3.5763 15.1897 3.12503 14.8091C2.77503 14.6216 2.27503 14.1591 3.11252 14.1466C3.4323 14.1813 3.73901 14.2926 4.00666 14.471C4.2743 14.6494 4.49499 14.8897 4.65003 15.1716C4.7868 15.4173 4.97071 15.6336 5.19122 15.8081C5.41173 15.9826 5.6645 16.1118 5.93506 16.1885C6.20562 16.2651 6.48864 16.2876 6.76791 16.2547C7.04717 16.2218 7.3172 16.134 7.56251 15.9966C7.6058 15.4882 7.83237 15.0129 8.20003 14.6591C5.97503 14.4091 3.65003 13.5466 3.65003 9.72161C3.63597 8.72776 4.00271 7.76619 4.67503 7.03411C4.36931 6.17033 4.40508 5.2224 4.77503 4.38411C4.77503 4.38411 5.6125 4.1216 7.52503 5.40911C9.16131 4.95909 10.8887 4.95909 12.525 5.40911C14.4375 4.10911 15.275 4.38411 15.275 4.38411C15.645 5.22238 15.6808 6.17034 15.375 7.03411C16.0494 7.76494 16.4164 8.72734 16.4 9.72161C16.4 13.5591 14.0625 14.4091 11.8375 14.6591C12.0762 14.901 12.26 15.1914 12.3764 15.5106C12.4929 15.8298 12.5393 16.1704 12.5125 16.5091C12.5125 17.8466 12.5 18.9216 12.5 19.2591C12.5 19.5216 12.6875 19.8341 13.1875 19.7341C15.4362 18.977 17.3426 17.4453 18.5664 15.4126C19.7903 13.3799 20.2519 10.9784 19.8689 8.63682C19.4859 6.29523 18.2832 4.16595 16.4755 2.62909C14.6678 1.09223 12.3727 0.247817 10 0.246582V0.246582Z" fill="white"/>
</svg>
